<svg xmlns="http://www.w3.org/2000/svg" xmlns:xlink="http://www.w3.org/1999/xlink" width="500" zoomAndPan="magnify" viewBox="0 0 375 374.999991" height="500" preserveAspectRatio="xMidYMid meet" version="1.0"><path fill="#000000" d="M 38.484375 95.5625 L 38.484375 169.414062 L 45.160156 169.414062 L 45.160156 95.5625 Z M 38.484375 95.5625 " fill-opacity="1" fill-rule="nonzero"/><path fill="#000000" d="M 105.890625 95.5625 L 105.890625 160.449219 L 61.664062 95.5625 L 54.269531 95.5625 L 59.554688 103.25 L 59.554688 169.414062 L 61.808594 169.414062 L 61.808594 106.664062 L 104.519531 169.414062 L 108.136719 169.414062 L 108.136719 95.5625 L 105.882812 95.5625 Z M 105.890625 95.5625 " fill-opacity="1" fill-rule="nonzero"/><path fill="#000000" d="M 147.527344 95.5625 L 122.75 95.5625 L 122.75 169.414062 L 147.527344 169.414062 C 167.859375 169.414062 184.363281 152.832031 184.363281 132.476562 C 184.363281 112.121094 167.859375 95.574219 147.527344 95.574219 Z M 143.996094 167.125 L 129.417969 167.125 L 129.417969 97.816406 L 143.996094 97.816406 C 163.046875 97.816406 178.542969 113.363281 178.542969 132.46875 C 178.542969 151.570312 163.046875 167.117188 143.996094 167.117188 Z M 143.996094 167.125 " fill-opacity="1" fill-rule="nonzero"/><path fill="#000000" d="M 197.425781 95.175781 L 197.425781 169.765625 L 204.84375 169.765625 L 204.84375 95.175781 Z M 197.425781 95.175781 " fill-opacity="1" fill-rule="nonzero"/><path fill="#000000" d="M 300.734375 91.972656 C 290.96875 91.972656 282.035156 95.625 275.273438 101.527344 C 268.476562 95.625 259.570312 91.972656 249.894531 91.972656 C 228.496094 91.972656 211.195312 109.363281 211.195312 130.660156 C 211.195312 151.957031 228.496094 169.347656 249.894531 169.347656 C 259.570312 169.347656 268.476562 165.789062 275.273438 159.761719 C 282.035156 165.78125 290.976562 169.347656 300.734375 169.347656 C 322.015625 169.347656 339.433594 152.015625 339.433594 130.660156 C 339.433594 109.304688 322.015625 91.972656 300.734375 91.972656 Z M 300.734375 166.328125 C 292.128906 166.328125 284.289062 162.679688 278.476562 156.660156 C 284.710938 149.773438 288.480469 140.640625 288.480469 130.667969 L 288.480469 129.691406 L 268.382812 129.691406 C 268.921875 110.464844 283.105469 95.101562 300.734375 95.101562 C 318.363281 95.101562 333.117188 111 333.117188 130.675781 C 333.117188 150.351562 318.574219 166.335938 300.734375 166.335938 Z M 249.894531 95.09375 C 258.382812 95.09375 266.222656 98.742188 272.035156 104.761719 C 266.011719 111.40625 262.242188 120.132812 262.035156 129.683594 L 249.894531 129.683594 L 249.894531 132.679688 L 262.035156 132.679688 C 262.570312 141.933594 266.222656 150.210938 272.035156 156.648438 C 266.214844 162.671875 258.382812 166.320312 249.894531 166.320312 C 231.9375 166.320312 217.511719 150.328125 217.511719 130.660156 C 217.511719 110.992188 231.9375 95.085938 249.894531 95.085938 Z M 282.128906 132.6875 C 281.714844 140.21875 279.25 147.105469 275.273438 152.679688 C 271.292969 147.105469 268.804688 140.21875 268.382812 132.6875 Z M 282.128906 132.6875 " fill-opacity="1" fill-rule="nonzero"/><path fill="#000000" d="M 58.613281 184.152344 L 34.628906 184.152344 L 34.628906 258.742188 L 42.050781 258.742188 L 42.050781 222.519531 L 58.613281 222.519531 C 69.152344 222.519531 77.875 213.917969 77.875 203.382812 C 77.875 192.847656 69.152344 184.160156 58.613281 184.160156 Z M 42.050781 187.144531 L 55.289062 187.144531 C 64.222656 187.144531 71.40625 194.476562 71.40625 203.375 C 71.40625 212.269531 64.222656 219.519531 55.289062 219.519531 L 42.050781 219.519531 Z M 42.050781 187.144531 " fill-opacity="1" fill-rule="nonzero"/><path fill="#000000" d="M 110.433594 222.628906 C 120.761719 222.300781 129.25 213.816406 129.25 203.375 C 129.25 192.929688 120.554688 184.152344 110.023438 184.152344 L 86.042969 184.152344 L 86.042969 258.742188 L 93.460938 258.742188 L 93.460938 222.636719 L 101.738281 222.636719 C 115.597656 226.613281 125.808594 240.789062 125.808594 257.347656 L 125.808594 258.414062 L 132.160156 258.414062 L 132.160156 257.347656 C 132.160156 242.070312 123.347656 228.867188 110.433594 222.636719 Z M 93.460938 187.265625 L 106.667969 187.265625 C 115.597656 187.265625 122.816406 194.46875 122.816406 203.375 C 122.816406 212.277344 115.609375 219.519531 106.667969 219.519531 L 93.460938 219.519531 Z M 93.460938 187.265625 " fill-opacity="1" fill-rule="nonzero"/><path fill="#000000" d="M 189.148438 184.238281 L 189.148438 233.785156 C 189.148438 245.835938 179.230469 255.714844 167.210938 255.714844 C 155.191406 255.714844 145.15625 245.835938 145.15625 233.785156 L 145.15625 184.238281 L 137.738281 184.238281 L 137.738281 229.390625 C 137.738281 245.5 150.976562 258.816406 167.210938 258.816406 C 183.445312 258.816406 196.566406 245.5 196.566406 229.390625 L 196.566406 184.238281 Z M 189.148438 184.238281 " fill-opacity="1" fill-rule="nonzero"/><path fill="#000000" d="M 211.050781 184.027344 L 211.050781 258.617188 L 218.46875 258.617188 L 218.46875 184.027344 Z M 211.050781 184.027344 " fill-opacity="1" fill-rule="nonzero"/><path fill="#000000" d="M 227.074219 184.238281 L 227.074219 187.265625 L 252.78125 187.265625 L 252.78125 258.734375 L 260.199219 258.734375 L 260.199219 187.265625 L 285.90625 187.265625 L 285.90625 184.238281 Z M 227.074219 184.238281 " fill-opacity="1" fill-rule="nonzero"/><path fill="#000000" d="M 281.808594 184.238281 L 281.808594 187.265625 L 307.515625 187.265625 L 307.515625 258.734375 L 314.933594 258.734375 L 314.933594 187.265625 L 340.605469 187.265625 L 340.605469 184.238281 Z M 281.808594 184.238281 " fill-opacity="1" fill-rule="nonzero"/><path fill="#000000" d="M 93.03125 292.996094 L 93.03125 281.796875 L 100.019531 281.796875 C 104.496094 281.796875 107.203125 283.824219 107.203125 287.398438 C 107.203125 290.96875 104.496094 292.996094 100.019531 292.996094 Z M 100.019531 291.550781 C 103.089844 291.550781 105.363281 290.164062 105.363281 287.398438 C 105.363281 284.632812 103.089844 283.269531 100.019531 283.269531 L 94.78125 283.269531 L 94.78125 291.558594 L 100.019531 291.558594 Z M 100.019531 291.550781 " fill-opacity="1" fill-rule="nonzero"/><path fill="#000000" d="M 112.140625 292.996094 L 112.140625 281.796875 L 123.421875 281.796875 L 123.421875 283.242188 L 113.910156 283.242188 L 113.910156 286.457031 L 121.816406 286.457031 L 121.816406 287.917969 L 113.910156 287.917969 L 113.910156 291.535156 L 123.421875 291.535156 L 123.421875 292.996094 Z M 112.140625 292.996094 " fill-opacity="1" fill-rule="nonzero"/><path fill="#000000" d="M 138.714844 283.628906 C 137.292969 283.125 135.398438 282.992188 133.589844 282.992188 C 132.085938 282.992188 129.351562 283.074219 129.351562 284.640625 C 129.351562 287.824219 139.53125 284.640625 139.53125 289.808594 C 139.53125 292.703125 136.214844 293.199219 133.40625 293.199219 C 131.335938 293.199219 129.074219 292.953125 127.410156 292.519531 L 127.46875 291.054688 C 129.191406 291.558594 131.480469 291.792969 133.429688 291.792969 C 135.5 291.792969 137.890625 291.492188 137.890625 289.886719 C 137.890625 286.4375 127.710938 289.726562 127.710938 284.75 C 127.710938 281.898438 131.226562 281.59375 133.550781 281.59375 C 135.871094 281.59375 137.542969 281.839844 138.789062 282.234375 L 138.707031 283.621094 Z M 138.714844 283.628906 " fill-opacity="1" fill-rule="nonzero"/><path fill="#000000" d="M 144.296875 281.796875 L 146.046875 281.796875 L 146.046875 292.996094 L 144.296875 292.996094 Z M 144.296875 281.796875 " fill-opacity="1" fill-rule="nonzero"/><path fill="#000000" d="M 160.601562 288.707031 L 160.601562 287.246094 L 166.34375 287.246094 C 166.363281 287.488281 166.386719 287.765625 166.386719 288.011719 C 166.210938 291.457031 162.8125 293.207031 158.960938 293.207031 C 154.199219 293.207031 150.96875 290.9375 150.96875 287.328125 C 150.96875 283.722656 154.359375 281.613281 158.859375 281.613281 C 160.929688 281.613281 163.191406 281.957031 164.984375 282.875 L 164.984375 284.4375 C 163.679688 283.699219 161.625 283.09375 159.042969 283.09375 C 155.6875 283.09375 152.820312 284.320312 152.820312 287.320312 C 152.820312 290.15625 155.425781 291.71875 158.941406 291.71875 C 161.652344 291.71875 164.183594 290.894531 164.484375 288.707031 Z M 160.601562 288.707031 " fill-opacity="1" fill-rule="nonzero"/><path fill="#000000" d="M 172.761719 284.730469 L 172.761719 292.996094 L 170.996094 292.996094 L 170.996094 281.59375 L 182.636719 290.207031 L 182.636719 281.796875 L 184.386719 281.796875 L 184.386719 293.199219 Z M 172.761719 284.730469 " fill-opacity="1" fill-rule="nonzero"/><path fill="#000000" d="M 208.453125 283.628906 C 207.03125 283.125 205.136719 282.992188 203.332031 282.992188 C 201.824219 282.992188 199.089844 283.074219 199.089844 284.640625 C 199.089844 287.824219 209.269531 284.640625 209.269531 289.808594 C 209.269531 292.703125 205.953125 293.199219 203.144531 293.199219 C 201.074219 293.199219 198.8125 292.953125 197.148438 292.519531 L 197.207031 291.054688 C 198.929688 291.558594 201.21875 291.792969 203.171875 291.792969 C 205.238281 291.792969 207.628906 291.492188 207.628906 289.886719 C 207.628906 286.4375 197.449219 289.726562 197.449219 284.75 C 197.449219 281.898438 200.964844 281.59375 203.289062 281.59375 C 205.609375 281.59375 207.285156 281.839844 208.527344 282.234375 L 208.445312 283.621094 Z M 208.453125 283.628906 " fill-opacity="1" fill-rule="nonzero"/><path fill="#000000" d="M 217.707031 292.996094 L 217.707031 283.269531 L 212.347656 283.269531 L 212.347656 281.804688 L 224.8125 281.804688 L 224.8125 283.269531 L 219.453125 283.269531 L 219.453125 292.996094 Z M 217.707031 292.996094 " fill-opacity="1" fill-rule="nonzero"/><path fill="#000000" d="M 239.609375 281.804688 L 241.359375 281.804688 L 241.359375 287.464844 C 241.359375 291.660156 238.421875 293.308594 235.074219 293.308594 C 231.726562 293.308594 228.832031 291.660156 228.832031 287.464844 L 228.832031 281.804688 L 230.582031 281.804688 L 230.582031 287.464844 C 230.582031 290.761719 232.828125 291.820312 235.082031 291.820312 C 237.335938 291.820312 239.617188 290.761719 239.617188 287.464844 L 239.617188 281.804688 Z M 239.609375 281.804688 " fill-opacity="1" fill-rule="nonzero"/><path fill="#000000" d="M 246.933594 292.996094 L 246.933594 281.796875 L 253.925781 281.796875 C 258.398438 281.796875 261.109375 283.824219 261.109375 287.398438 C 261.109375 290.96875 258.398438 292.996094 253.925781 292.996094 Z M 253.925781 291.550781 C 256.996094 291.550781 259.265625 290.164062 259.265625 287.398438 C 259.265625 284.632812 256.996094 283.269531 253.925781 283.269531 L 248.683594 283.269531 L 248.683594 291.558594 L 253.925781 291.558594 Z M 253.925781 291.550781 " fill-opacity="1" fill-rule="nonzero"/><path fill="#000000" d="M 266.046875 281.796875 L 267.796875 281.796875 L 267.796875 292.996094 L 266.046875 292.996094 Z M 266.046875 281.796875 " fill-opacity="1" fill-rule="nonzero"/><path fill="#000000" d="M 280.722656 293.199219 C 276.03125 293.199219 272.691406 290.96875 272.691406 287.398438 C 272.691406 283.824219 276.039062 281.59375 280.722656 281.59375 C 285.410156 281.59375 288.773438 283.824219 288.773438 287.398438 C 288.773438 290.96875 285.484375 293.199219 280.722656 293.199219 Z M 280.722656 283.082031 C 277.234375 283.082031 274.542969 284.605469 274.542969 287.398438 C 274.542969 290.1875 277.234375 291.710938 280.722656 291.710938 C 284.214844 291.710938 286.921875 290.207031 286.921875 287.398438 C 286.921875 284.589844 284.214844 283.082031 280.722656 283.082031 Z M 280.722656 283.082031 " fill-opacity="1" fill-rule="nonzero"/></svg>